<svg width="70" height="80" viewBox="0 0 70 80" fill="none" xmlns="http://www.w3.org/2000/svg">
<path d="M61.507 52.5011C55.5693 45.5565 47.4487 44.7738 45.294 44.691C42.2872 42.1152 42.001 39.2774 42.0078 38.2326C43.8216 36.374 45.118 34.0327 46.0456 31.6224C49.7006 31.0983 53.0523 25.4779 50.0868 22.119C54.3522 11.6092 47.5593 -0.187526 34.8492 0.00226033C26.1185 0.00226033 19.5604 5.38142 18.5258 13.3915C18.1534 16.3741 18.5465 19.3947 19.6672 22.1981C19.2258 22.6739 18.8327 23.405 18.6879 24.5256C18.3086 28.3047 21.0222 31.1392 24.0428 31.6426C24.8497 33.8908 26.3841 35.9183 27.6806 37.8045C27.6979 37.9596 28.1117 41.5215 24.4153 44.687C22.2602 44.7697 14.1394 45.5525 8.20221 52.4971C1.57831 60.2451 0.0680516 77.7652 0.00590761 78.5067C-0.0699513 79.2825 0.595543 80.0169 1.38173 79.9997H68.3278C68.714 79.9997 69.0795 79.8376 69.3415 79.5549C70.4829 79.279 67.9036 60.0351 61.5038 52.5011L61.507 52.5011ZM47.1804 56.6389L49.3975 59.2146L38.1427 72.58L45.3321 49.005L49.832 54.7842L49.5492 55.1565C48.4321 53.3739 45.9425 54.9324 47.1838 56.6358L47.1804 56.6389ZM22.3881 54.6941C21.6605 54.0597 20.6502 54.4045 20.1675 55.1596L19.8847 54.7872L24.3846 49.0081L31.574 72.5831L20.3192 59.2177L22.5364 56.6419C23.0329 56.0661 22.9674 55.1937 22.3915 54.6972L22.3881 54.6941ZM30.6499 50.446C30.6637 50.4839 33.2705 56.9181 33.2705 56.9181L31.3327 62.349L27.1777 48.7214L30.6499 50.446ZM39.0633 50.446L42.5356 48.7219L38.3772 62.3592L36.4359 56.9353C36.4359 56.9353 39.0496 50.4872 39.0634 50.4493L39.0633 50.446ZM34.8532 60.6971L37.0289 66.7762L34.8566 73.8966L32.6843 66.7762L34.8532 60.6971ZM34.8566 53.4974L33.3946 49.9079H36.3187L34.8566 53.4974ZM36.9359 38.491C35.8221 38.9807 34.4912 38.9841 33.3704 38.4945C26.1845 35.3532 24.5466 24.0469 24.1945 20.1982C26.6392 19.9189 31.7011 19.1085 34.4765 17.0086C35.7144 16.0707 36.5799 15.1535 37.1799 14.3329C39.4832 17.7397 43.59 19.3879 45.5658 20.0155C45.3796 23.5774 44.2072 35.2769 36.9316 38.4874L36.9359 38.491ZM47.4801 27.6741C47.387 27.781 47.287 27.8603 47.1904 27.9499C47.5938 26.9672 47.6904 24.2398 48.1007 24.0397C48.8972 24.9535 48.1248 27.1499 47.4766 27.6741H47.4801ZM21.2639 13.7438C22.8639 -0.904212 46.8489 -0.890089 48.4493 13.7403C48.6734 15.5161 48.5596 17.1229 48.2803 18.5161C48.1252 18.085 47.7562 17.7471 47.2907 17.6402C47.2183 17.623 39.9082 15.8954 38.522 10.7405C38.1358 9.29571 35.9808 9.4922 35.8187 10.9611C35.8187 10.9784 35.5601 12.7369 32.8154 14.8128C30.3189 16.6989 24.6226 17.4472 22.6367 17.5782C22.0849 17.6126 21.6333 17.9713 21.4436 18.454C21.1401 16.9127 21.0639 15.3403 21.2639 13.7438ZM22.357 27.6741C21.7088 27.1534 20.9363 24.9501 21.7329 24.0397C21.7743 24.0156 21.8363 24.0087 21.9053 24.0052C22.1225 25.2604 22.4225 26.6706 22.8363 28.1327C22.6743 27.9948 22.5122 27.85 22.357 27.6706L22.357 27.6741ZM30.3016 39.9361C32.967 41.9497 36.7013 42.2153 39.474 40.2567C39.7981 41.805 40.5877 43.7876 42.3842 45.7117L38.3188 47.7324C37.8809 47.3634 37.3258 47.1496 36.7361 47.1496H32.9708C32.3811 47.1496 31.8294 47.3634 31.388 47.7324L27.3226 45.7117C29.2501 43.6498 30.0156 41.5222 30.2984 39.936L30.3016 39.9361ZM10.3025 54.2945C14.0058 49.9637 18.785 48.3602 21.8503 47.7741L17.0574 53.9291C16.6746 54.4221 16.6712 55.1117 17.047 55.6117L18.3263 57.3013C17.647 58.0841 16.5677 59.0288 17.4505 60.0978L31.891 77.2492L2.91634 77.2458C3.42667 72.8873 5.30952 60.1355 10.3025 54.2945ZM37.8224 77.2454L52.2629 60.094C53.1491 59.0286 52.0629 58.0768 51.3871 57.2975C51.9802 56.3424 53.6077 55.1459 52.656 53.9287L47.8665 47.7772C50.9285 48.3633 55.7042 49.9633 59.4073 54.2942C64.4002 60.1353 66.283 72.8862 66.7933 77.2451H37.8151L37.8224 77.2454Z" fill="black"/>
<path d="M58.9417 44.9689H62.3208C65.6 44.9689 68.2689 42.3001 68.2689 39.0208V38.0726C68.2689 37.3106 67.6517 36.6933 66.8896 36.6933H66.7896L62.8691 28.9109H66.5586C67.3207 28.9109 67.9379 28.2936 67.9379 27.5316C67.9379 26.7696 67.3207 26.1523 66.5586 26.1523H54.7001C53.938 26.1523 53.3208 26.7696 53.3208 27.5316C53.3208 28.2936 53.938 28.9109 54.7001 28.9109H58.3896L54.4691 36.6933C53.676 36.6451 52.9898 37.2726 52.9932 38.0726C52.6036 41.6552 55.2418 44.9965 58.9417 44.9689ZM62.3208 42.2104H58.9417C57.3279 42.2104 55.9935 41.007 55.7832 39.4519H65.4826C65.2722 41.007 63.9344 42.2104 62.3241 42.2104H62.3208ZM60.6312 30.5972L63.7035 36.6935H57.5589L60.6312 30.5972Z" fill="black"/>
</svg>
