<svg width="23" height="26" viewBox="0 0 23 26" fill="none" xmlns="http://www.w3.org/2000/svg">
<path d="M19.1719 0H6.31144C6.25249 0 6.19495 0.00701717 6.14021 0.0168415H6.1346C6.056 0.0322803 5.98301 0.0603492 5.91424 0.0954385C5.8974 0.10386 5.88337 0.112281 5.86653 0.120702C5.79635 0.160002 5.73179 0.206316 5.67565 0.262457L0.263863 5.67424C0.207722 5.73038 0.161404 5.79635 0.120703 5.86652C0.112281 5.88196 0.10386 5.8974 0.0954392 5.91284C0.0603513 5.98302 0.0322814 6.056 0.0168422 6.13319V6.14021C0.00561407 6.19495 0 6.25109 0 6.31004V12.9977H1.7965V7.20829H4.80004C6.12916 7.20829 7.21127 6.12758 7.21127 4.79706V1.79352H19.1735C19.9749 1.79352 20.6275 2.39424 20.6275 3.13109V22.8617C20.6275 23.6 19.9763 24.1993 19.1735 24.1993L3.05416 24.2035C2.36082 24.2035 1.79661 23.6393 1.79661 22.9459V22.8435H0.000107594V22.9459C0.000107594 24.6302 1.36994 26 3.05416 26H19.172C20.9643 26 22.4226 24.5937 22.4226 22.8659V3.1353C22.4226 1.40617 20.9643 0.00123116 19.172 0.00123116L19.1719 0Z" fill="black"/>
<path d="M2.33636 18.7875H1.47182V20.8423H0.078125V15.1187H2.3364C3.7385 15.1187 4.44028 15.9102 4.44028 16.9615C4.44028 17.9074 3.79602 18.7875 2.33636 18.7875ZM2.2311 17.6788C2.7855 17.6788 3.02267 17.4009 3.02267 16.9616C3.02267 16.5209 2.78688 16.2444 2.2311 16.2444H1.47319V17.6788H2.2311Z" fill="black"/>
<path d="M10.3084 17.9806C10.3084 19.676 9.13508 20.8423 7.30768 20.8423H5.16309V15.1187H7.30768C9.13364 15.1187 10.3084 16.2767 10.3084 17.9806ZM7.21926 19.6353C8.2705 19.6353 8.89083 19.0318 8.89083 17.9806C8.89083 16.9279 8.27046 16.309 7.21926 16.309H6.55961V19.6353H7.21926Z" fill="black"/>
<path d="M11.0919 15.1187H14.8167V16.2359H12.4855V17.4429H14.2301V18.5264H12.4855V20.8422H11.0918L11.0919 15.1187Z" fill="black"/>
</svg>
