<svg width="21" height="15" viewBox="0 0 21 15" fill="none" xmlns="http://www.w3.org/2000/svg">
<path fill-rule="evenodd" clip-rule="evenodd" d="M0.343101 1.05562C0.432163 0.913119 0.538102 0.780003 0.659038 0.659066C1.08091 0.237193 1.65279 0 2.24998 0H18.7501C19.3473 0 19.9191 0.237188 20.341 0.659066C20.4619 0.780005 20.5679 0.913131 20.6569 1.05562L10.5001 8.08788L0.343101 1.05562ZM21 2.64282V12.75C21 13.0668 20.9334 13.3753 20.8078 13.6594L13.9255 7.54126L21 2.64282ZM19.7784 14.7506C19.4634 14.9128 19.1119 15 18.75 15H2.24991C1.88804 15 1.53646 14.9128 1.22146 14.7506L8.34469 8.41963L10.0734 9.61683C10.3294 9.79402 10.6706 9.79402 10.9266 9.61683L12.6553 8.41963L19.7784 14.7506ZM0.192188 13.6594C0.0665619 13.3753 0 13.0668 0 12.75V2.64282L7.07451 7.54123L0.192188 13.6594Z" fill="black"/>
</svg>
