<svg width="166" height="26" viewBox="0 0 166 26" fill="none" xmlns="http://www.w3.org/2000/svg">
<g clip-path="url(#clip0_420_761)">
<path d="M157.195 8.59756V0.454678H148.391V8.55622H140.248V17.4018H148.391V25.5447H157.236V17.4018H165.338V8.59756H157.195ZM163.271 15.3351H155.169V23.4779H150.457V15.3351H142.356V10.6229H150.457V2.5214H155.169V10.6643H163.271V15.3351ZM30.5875 22.8166L22.3206 0.496013H17.8151V25.338H20.4605V2.97608L28.7274 25.338H33.2329V0.496013H30.5875V22.8166ZM47.7412 12.359C50.5933 11.4496 51.42 9.67225 51.42 6.73751C51.42 2.23206 49.3946 0.537347 45.0132 0.537347H38.4823V25.3793H44.5172C49.3533 25.3793 51.8747 23.8086 51.8747 18.5591C51.8747 15.2111 51.0893 13.1857 47.7412 12.359ZM41.3344 2.81074H44.1865C46.9972 2.81074 48.5266 3.63743 48.5266 6.86151C48.5266 9.79625 47.3692 11.2843 44.3518 11.2843H41.3344V2.81074ZM43.9385 22.9819H41.3344V13.5577H44.4345C47.6999 13.5577 48.8986 15.2111 48.8986 18.3938C48.8986 22.2792 47.1626 22.9819 43.9385 22.9819ZM8.43222 11.863L7.19219 11.119C4.87746 9.71358 3.34809 8.72156 3.34809 6.07616C3.14142 4.21611 4.50545 2.56273 6.32416 2.3974C6.53084 2.35606 6.73751 2.35606 6.94418 2.3974C9.79625 2.3974 10.4989 3.9681 10.4989 6.32416V6.90285H13.4337V6.07616C13.4337 1.77738 11.119 0 7.06818 0C3.14142 0 0.330675 2.06672 0.330675 6.2415C0.330675 10.2096 2.56273 11.6976 5.49748 13.5164L6.90285 14.3844C9.25891 15.8311 10.6643 16.7818 10.6643 19.4685C10.6643 21.9486 9.58958 23.4779 6.90285 23.4779C3.7201 23.4779 3.01741 21.3699 3.01741 18.6418V18.3525H0V18.6418C0 23.4779 1.94272 25.834 6.86151 25.834C10.9123 25.834 13.599 23.6846 13.599 19.2618C13.6404 15.0044 11.5323 13.7644 8.43222 11.863ZM115.778 11.863L114.538 11.119C112.223 9.71358 110.694 8.72156 110.694 6.07616C110.487 4.21611 111.851 2.56273 113.711 2.3974C113.918 2.35606 114.124 2.35606 114.331 2.3974C117.183 2.3974 117.886 3.9681 117.886 6.32416V6.90285H120.82V6.07616C120.82 1.86005 118.506 0.0413344 114.455 0.0413344C110.528 0.0413344 107.759 2.10805 107.759 6.28283C107.759 10.2509 109.991 11.739 112.926 13.5577L114.331 14.4257C116.687 15.8724 118.092 16.8231 118.092 19.5098C118.092 21.9899 117.018 23.5193 114.331 23.5193C111.148 23.5193 110.446 21.4112 110.446 18.6832V18.3938H107.469V18.6832C107.469 23.5193 109.412 25.8753 114.331 25.8753C118.382 25.8753 121.068 23.7259 121.068 19.3032C120.986 15.0044 118.878 13.7644 115.778 11.863ZM100.525 22.8166L92.2584 0.496013H87.753V25.338H90.3984V2.97608L98.6652 25.338H103.171V0.496013H100.525V22.8166ZM79.1967 12.359C82.0488 11.4496 82.8755 9.67225 82.8755 6.73751C82.8755 2.23206 80.8088 0.537347 76.4687 0.537347H69.9378V25.3793H75.9726C80.8088 25.3793 83.3302 23.8086 83.3302 18.5591C83.3302 15.2111 82.5448 13.1857 79.1967 12.359ZM72.7899 2.81074H75.642C78.4527 2.81074 79.9821 3.63743 79.9821 6.86151C79.9821 9.79625 78.8247 11.2843 75.8073 11.2843H72.7899V2.81074ZM75.394 22.9819H72.7899V13.5577H75.89C79.1554 13.5577 80.3541 15.2111 80.3541 18.3938C80.3541 22.2792 78.618 22.9819 75.394 22.9819Z" fill="#3E5570"/>
</g>
<defs>
<clipPath id="clip0_420_761">
<rect width="165.338" height="25.834" fill="white"/>
</clipPath>
</defs>
</svg>
