<svg width="40" height="40" viewBox="0 0 40 40" fill="none" xmlns="http://www.w3.org/2000/svg">
<path d="M2.8632 19.7505L8.2532 21.9873C7.78378 23.225 7.39285 24.491 7.08273 25.7778C7.03587 25.9689 7.03883 26.1688 7.09134 26.3584C7.14385 26.5481 7.24415 26.721 7.38264 26.8608L13.135 32.6215C13.2748 32.76 13.4478 32.8603 13.6374 32.9128C13.827 32.9653 14.0269 32.9683 14.218 32.9214C15.505 32.61 16.771 32.2176 18.0085 31.7468L20.2453 37.1368C20.3 37.2692 20.3865 37.3861 20.4972 37.4771C20.6079 37.5681 20.7393 37.6303 20.8798 37.6583C21.0203 37.6864 21.1655 37.6793 21.3026 37.6377C21.4397 37.5961 21.5644 37.5214 21.6657 37.42L24.6565 34.4293C25.2334 33.8511 25.6824 33.1582 25.9744 32.3955C26.2665 31.6327 26.395 30.8171 26.3518 30.0015L26.206 27.169C32.4624 22.4163 38.2565 14.3647 39.9893 1.11457C40.0118 0.964427 39.9988 0.811086 39.9513 0.66688C39.9038 0.522673 39.8231 0.391623 39.7157 0.284263C39.6084 0.176903 39.4773 0.0962295 39.3331 0.048726C39.1889 0.00122262 39.0356 -0.0117851 38.8854 0.0107484C25.6353 1.73522 17.5837 7.50844 12.8101 13.7773L9.9985 13.6482C9.18388 13.605 8.36926 13.7332 7.60728 14.0245C6.8453 14.3158 6.15291 14.7637 5.57486 15.3394L2.57995 18.3384C2.48046 18.4398 2.40729 18.564 2.3668 18.7001C2.32632 18.8362 2.31975 18.9802 2.34769 19.1195C2.37562 19.2587 2.4372 19.389 2.52706 19.499C2.61691 19.609 2.73231 19.6953 2.8632 19.7505ZM24.9939 9.8827C25.4998 9.37993 26.1434 9.03825 26.8433 8.90076C27.5432 8.76326 28.2681 8.83611 28.9267 9.11012C29.5853 9.38413 30.1479 9.84702 30.5438 10.4404C30.9396 11.0338 31.1508 11.7311 31.1508 12.4444C31.1508 13.1577 30.9396 13.855 30.5438 14.4484C30.1479 15.0418 29.5853 15.5047 28.9267 15.7787C28.2681 16.0527 27.5432 16.1256 26.8433 15.9881C26.1434 15.8506 25.4998 15.5089 24.9939 15.0061C24.6561 14.6705 24.388 14.2714 24.2051 13.8317C24.0222 13.3921 23.928 12.9206 23.928 12.4444C23.928 11.9682 24.0222 11.4968 24.2051 11.0571C24.388 10.6175 24.6561 10.2183 24.9939 9.8827ZM0.00158113 38.9612C0.309819 33.288 3.06314 30.1639 4.64182 28.8227C4.71783 28.7636 4.80976 28.7286 4.9058 28.7222C5.00184 28.7157 5.09762 28.7381 5.18087 28.7864C5.26411 28.8348 5.33102 28.9069 5.37302 28.9935C5.41501 29.0801 5.43018 29.1773 5.41658 29.2726C5.26421 30.1264 5.23895 30.998 5.3416 31.8593C5.42762 32.5662 5.74799 33.224 6.25158 33.7276C6.75517 34.2312 7.41294 34.5516 8.11991 34.6376C8.98695 34.7492 9.86578 34.7309 10.7274 34.5834C10.8256 34.5661 10.9268 34.5796 11.0171 34.622C11.1073 34.6645 11.1822 34.7338 11.2315 34.8205C11.2808 34.9072 11.302 35.007 11.2923 35.1063C11.2826 35.2055 11.2424 35.2993 11.1773 35.3748C9.83605 36.9327 6.71201 39.686 1.03876 39.9984C0.9005 40.0063 0.762141 39.9848 0.632747 39.9355C0.503353 39.8861 0.385846 39.81 0.287923 39.7121C0.19 39.6142 0.113872 39.4966 0.0645261 39.3673C0.0151802 39.2379 -0.00626994 39.0995 0.00158113 38.9612Z" fill="black"/>
</svg>
