<?xml version="1.0" encoding="utf-8"?>
<!-- Generator: Adobe Illustrator 27.6.1, SVG Export Plug-In . SVG Version: 6.00 Build 0)  -->
<svg version="1.1" id="Layer_1" xmlns="http://www.w3.org/2000/svg" xmlns:xlink="http://www.w3.org/1999/xlink" x="0px" y="0px"
	 viewBox="0 0 1200 373.3" style="enable-background:new 0 0 1200 373.3;" xml:space="preserve">
<path d="M678.2,218.2c0,69.3-37.8,77.6-75.5,77.6c-65,0-78.8-33.3-78.8-80.8V80.9h-24V67.9h90.8v12.9h-25.8v130.2
	c0,46,12,68.8,44.9,68.8c33.6,0,50-16.6,50-64.4V80.8h-24.2V67.9h64.5v12.9h-21.9L678.2,218.2z M741.7,280.4V80.9h-25.3V67.9h100.7
	c42.8,0,64,24.2,64,52.6c0,30.2-27.4,47.3-51.8,52.4c47.4,4.4,60.3,34.9,60.3,57.3c0,45.7-38.9,63-77.2,63h-97.7v-12.9H741.7z
	 M840.2,123.1c0-21-10.8-42.3-34.6-42.3h-26.2v86.6h23.4C828,167.4,840.2,146.2,840.2,123.1L840.2,123.1z M848.2,230.3
	c0-30-12.9-50.1-43.1-50.1h-25.7v100.2h20.9C832.3,280.4,848.2,261.4,848.2,230.3z M990.1,77.9c-23.7,0-38.9,14.1-38.9,38.6
	c0,22.2,24,32.8,47.2,40.6c13.8,4.9,31.3,11.3,43.3,22.9c13.1,12.5,20.3,29.1,19.8,50.1c-0.9,39.3-28.3,65.8-76.7,66
	c-18.2,0-46.5-4.2-63.6-14.1l-1.8-59.1h14.3c1.2,39.7,19.8,60.5,52.5,60.5c26.3,0,40.8-17.6,40.8-44.3c0-23.1-19.1-33-48.1-42.7
	c-9.4-3.2-28.1-10.2-41.2-23.1c-11.7-11.8-17.3-26.6-17.3-42.3c0-46,32.7-65.8,73.2-65.8c16.1,0,40.3,5.8,54.4,13.9l1.4,51.3H1035
	C1032,93.8,1016.1,77.9,990.1,77.9L990.1,77.9z"/>
<path d="M386.6,113.5l-6,5l6.3,20.7l-19-10.4l-6.3,5l21,11.4l-22.3,18l-6-8l8-6.4l-6-7l-8,6.4l-6-7.7l8-6.4l-6-7.7l-41,34.1l39,31.4
	l7-8.7c5,0.3,8.7,4,10.7,8.7l-7,8.7l4.3,3.3c9.7-8.7,22.3-14.4,35.4-14.4c27.3,0,48.7,22.4,48.7,49.8c0,9-2.3,18.7-7.3,26.8l7.3,5.7
	c-0.3,5.4-5.3,11-10.3,12.4l-7-5.7c-9.7,9.4-22.3,14.4-35.7,14.4c-27.3,0-48.7-21.7-48.7-49.5c0-9,2.7-18.4,6.7-26.1l-4-3.7l-7,9.4
	c-5-0.7-9.3-4-10.7-9.4l7-8.4l-33-27.4v43.5l11,0.3c1.3,1.7,2.3,4,2.3,6.7c0,2.3-1,5-2,7h-11.3v5.4c24,4,44,24.4,44,49.1
	c0,25.7-19.7,46.2-44,50.2v8.7c-2.3,1.3-5.3,2.3-8,2.3c-3,0-6.3-1-9-2.3v-8.7c-24.3-4-43.4-24.4-43.4-50.2c0-24.7,19-45.1,43.4-48.8
	v-5.7h-11.3c-1.3-2-2-4.7-2-7c0-2.7,0.7-5,2-7h11.3v-43.5l-33.4,27.4l7.3,8.4c-1.7,5.3-6,8.7-11,9.4l-7-9.4l-4.3,3.7
	c4.7,7.7,7,17.1,7,26.1c0,27.7-21.3,49.5-48.7,49.5c-13,0-26-5-35.4-14.4l-7.3,5.7c-4.7-1.3-9.7-7-10.3-12.4l7-5.7
	c-4.3-8-7-17.7-7-26.8c0-27.4,21.3-49.8,48.7-49.8c13.3,0,26,5.7,35.7,14.4l4-3l-7-9c1.7-4.7,6-8,11-8.7l7,8.7l39-31.4l-41-34.1
	l-6,7.7l8,6.4l-6,7.7l-8-6.4l-6,7l7.7,6.4l-6,8l-22-18l20.7-11.4l-6-5l-19,10.4l6.3-20.7l-6-5l-7,22.7l-22.3-18.1l6-7.4l7.7,6.4
	l6.3-7.4l-8-7l6-7l8,6l5.7-7l-17.3-13.7c1.7-5.7,5.3-10.4,10.7-13.7l92.4,75.6V92.5h-9.3v9.7h-9.3v-9.7h-9.7v9.7h-9.7V73.7l22,9.4
	v-8l-20.3-8.4l20.3-8V51l-22,8.7V30.9h9.7v10.4h9.7V30.9h9.3v10.4h9.3V18.6c2.7-1,5.7-1.7,8.7-1.7c2.7,0,5.7,0.7,8.3,1.7V143
	l92.4-75.6c5,3.3,8.7,8.1,10.7,13.7l-17.7,13.7l6,7l8-6l6,7l-8,7l6,7.4l8-6.4l6,7.4l-22.3,18.1L386.6,113.5z M197.8,250.3
	c0,8,6,13,13,13.7l-11.7,9c-8-3-15.3-12.7-15.3-21.1c0-2.7,0.7-4.3,1.3-6.4c-1,0-1.7,0.3-2.3,0.3c-10.7,0-19.7-10-21.7-20.4l12-9.4
	c-0.3,1.3-0.3,2.3-0.3,3.3c0,6.7,6.3,12.7,13,12.7c7,0,13.7-6,13.7-13.1c0-8.7-6.7-14.4-15-14.4c-16.3,0-32.4,15.7-32.4,36.4
	c0,6,1.3,11.7,4,16.7l7.3-5.7c5,2.3,9,7.4,10.3,13l-7.3,5.7c7,6,15.7,8.7,24.7,8.7c18.7,0,33.7-15,33.7-28.4
	c0-7.7-5.3-14.4-13.3-14.4C204.2,236.9,197.8,242.6,197.8,250.3z M296.9,279c0,7.3,6,13.4,13,13.4c5,0,7-2,10.7-5v15.1
	c-3.7,2-7.3,3-11.3,3c-8,0-14.7-2.3-19-9.4c-4.7,7-11.3,9.4-19.3,9.4c-3.7,0-7.7-1-11.3-3v-15.1c3.3,3.3,6,5,10.7,5
	c7.3,0,13-6,13-13.4c0-7-4.7-13.4-12.3-13.4c-13.7,0-19.3,13-19.3,25.1c0,17.7,13,32.8,30,35.8v-9c2.7-1.3,5.7-1.7,8.3-1.7
	c3,0,6,0.3,8.7,1.7v9c15.7-2.3,30-19.1,30-35.8c0-12.4-5-25.1-19.3-25.1C301.9,265.7,296.9,272,296.9,279z M379.9,219.2
	c0,6.7,7,13.1,14,13.1c6.7,0,13-6,13-12.7c0-1-0.3-2-0.3-3.3l11.7,9.4c-2,11.4-12,21.4-23.7,20.1c0.7,2,1,3.7,1,6.4
	c0,8.4-7.3,18-15.3,21.1l-11.7-9c7.3-0.7,13.3-5.7,13.3-13.7c0-7.7-6.7-13.4-14-13.4c-7.7,0-13.3,6.7-13.3,14.7
	c0,9.7,11.7,28.1,34,28.1c9,0,17.7-2.7,24.3-8.7l-7.3-5.7c1.7-5.7,5-10.7,10.3-13l7.3,5.7c2.7-5,4.3-10.7,4.3-16.7
	c0-16-12.3-36.4-32-36.4C387.3,204.8,379.9,210.5,379.9,219.2L379.9,219.2z"/>
</svg>
