<svg version="1.1" id="Layer_1" xmlns:x="ns_extend;" xmlns:i="ns_ai;" xmlns:graph="ns_graphs;" xmlns="http://www.w3.org/2000/svg" xmlns:xlink="http://www.w3.org/1999/xlink" x="0px" y="0px" viewBox="0 0 400 62.5" style="enable-background:new 0 0 400 62.5;" xml:space="preserve">
 <style type="text/css">
  .st0{fill:#FFFFFF;}
 </style>
 <metadata>
  <sfw xmlns="ns_sfw;">
   <slices>
   </slices>
   <sliceSourceBounds bottomLeftOrigin="true" height="62.5" width="400" x="0.5" y="-231.4">
   </sliceSourceBounds>
  </sfw>
 </metadata>
 <g>
  <path class="st0" d="M380.3,20.8V1.1H359v19.6h-19.7v21.4H359v19.7h21.4V42.1H400V20.8H380.3z M395,37.1h-19.6v19.7H364V37.1h-19.6
		V25.7H364V6.1h11.4v19.7H395V37.1z M74,55.2l-20-54H43.1v60.1h6.4V7.2l20,54.1h10.9V1.2H74C74,1.2,74,55.2,74,55.2z M115.5,29.9
		c6.9-2.2,8.9-6.5,8.9-13.6c0-10.9-4.9-15-15.5-15H93.1v60.1h14.6c11.7,0,17.8-3.8,17.8-16.5C125.5,36.8,123.6,31.9,115.5,29.9z
		 M100,6.8h6.9c6.8,0,10.5,2,10.5,9.8c0,7.1-2.8,10.7-10.1,10.7H100V6.8z M106.3,55.6H100V32.8h7.5c7.9,0,10.8,4,10.8,11.7
		C118.3,53.9,114.1,55.6,106.3,55.6L106.3,55.6z M20.4,28.7l-3-1.8c-5.6-3.4-9.3-5.8-9.3-12.2c-0.5-4.5,2.8-8.5,7.2-8.9
		c0.5-0.1,1-0.1,1.5,0c6.9,0,8.6,3.8,8.6,9.5v1.4h7.1v-2C32.5,4.3,26.9,0,17.1,0C7.6,0,0.8,5,0.8,15.1c0,9.6,5.4,13.2,12.5,17.6
		l3.4,2.1c5.7,3.5,9.1,5.8,9.1,12.3c0,6-2.6,9.7-9.1,9.7c-7.7,0-9.4-5.1-9.4-11.7v-0.7H0v0.7c0,11.7,4.7,17.4,16.6,17.4
		c9.8,0,16.3-5.2,16.3-15.9C33,36.3,27.9,33.3,20.4,28.7z M280.1,28.7l-3-1.8c-5.6-3.4-9.3-5.8-9.3-12.2c-0.5-4.5,2.8-8.5,7.3-8.9
		c0.5-0.1,1-0.1,1.5,0c6.9,0,8.6,3.8,8.6,9.5v1.4h7.1v-2c0-10.2-5.6-14.6-15.4-14.6c-9.5,0-16.2,5-16.2,15.1
		c0,9.6,5.4,13.2,12.5,17.6l3.4,2.1c5.7,3.5,9.1,5.8,9.1,12.3c0,6-2.6,9.7-9.1,9.7c-7.7,0-9.4-5.1-9.4-11.7v-0.7h-7.2v0.7
		c0,11.7,4.7,17.4,16.6,17.4c9.8,0,16.3-5.2,16.3-15.9C292.7,36.3,287.6,33.3,280.1,28.7z M243.2,55.2l-20-54h-10.9v60.1h6.4V7.2
		l20,54.1h10.9V1.2h-6.4L243.2,55.2L243.2,55.2z M191.6,29.9c6.9-2.2,8.9-6.5,8.9-13.6c0-10.9-5-15-15.5-15h-15.8v60.1h14.6
		c11.7,0,17.8-3.8,17.8-16.5C201.6,36.8,199.7,31.9,191.6,29.9L191.6,29.9z M176.1,6.8h6.9c6.8,0,10.5,2,10.5,9.8
		c0,7.1-2.8,10.7-10.1,10.7h-7.3L176.1,6.8z M182.4,55.6h-6.3V32.8h7.5c7.9,0,10.8,4,10.8,11.7C194.4,53.9,190.2,55.6,182.4,55.6
		L182.4,55.6z">
  </path>
 </g>
</svg>