<svg width="54" height="34" viewBox="0 0 54 34" fill="none" xmlns="http://www.w3.org/2000/svg">
<path d="M13.4363 16.3956L13.4011 16.3604C12.9755 15.9443 12.4115 15.7156 11.8123 15.7156C11.1933 15.7156 10.6156 15.9572 10.1866 16.3965L6.43145 20.2075C5.55627 21.1033 5.57261 22.5451 6.46928 23.4202L6.50539 23.4555C6.93094 23.8716 7.49404 24.1003 8.09411 24.1003C8.7131 24.1003 9.28996 23.8587 9.71895 23.4194L13.4741 19.6075C14.3484 18.7134 14.333 17.2716 13.4363 16.3956Z" fill="black"/>
<path d="M18.0504 19.7957L18.0143 19.7605C17.5888 19.3453 17.0257 19.1157 16.4264 19.1157C15.8066 19.1157 15.2297 19.3573 14.7999 19.7966L11.0464 23.6094C10.1712 24.5043 10.1876 25.9461 11.0834 26.8221L11.1195 26.8565C11.545 27.2726 12.109 27.5021 12.7082 27.5021C13.3272 27.5021 13.9049 27.2605 14.3339 26.8212L18.0882 23.0085C18.9634 22.1135 18.9462 20.6718 18.0504 19.7957Z" fill="black"/>
<path d="M22.9615 22.7914L22.9245 22.7552C22.4998 22.34 21.9358 22.1113 21.3358 22.1113C20.7168 22.1113 20.1399 22.3529 19.7109 22.7922L15.9557 26.6041C15.0806 27.4999 15.0969 28.9417 15.9936 29.8168L16.0297 29.8521C16.4544 30.2673 17.0183 30.4969 17.6184 30.4969C18.2374 30.4969 18.8143 30.2553 19.2441 29.816L22.9984 26.0032C23.8736 25.1083 23.8564 23.6665 22.9615 22.7914Z" fill="black"/>
<path d="M27.5747 26.0555L27.5377 26.0185C27.113 25.6042 26.5499 25.3755 25.9498 25.3755C25.3308 25.3755 24.754 25.6171 24.3241 26.0564L20.5698 29.8683C19.6938 30.7632 19.711 32.205 20.6068 33.081L20.6438 33.1163C21.0684 33.5315 21.6324 33.761 22.2316 33.761C22.8506 33.761 23.4283 33.5195 23.8573 33.0801L27.6116 29.2674C28.4877 28.3724 28.4705 26.9307 27.5747 26.0555Z" fill="black"/>
<path d="M31.6094 9.47492C27.6324 13.2378 24.5538 14.6443 24.4232 14.7036L24.3974 14.7131C23.805 14.9014 23.0984 15.0002 22.3547 15.0002C21.4108 15.0002 20.631 14.8446 20.2493 14.7114C19.479 14.4423 18.1654 13.1742 17.598 12.1529C17.0134 11.1006 17.5215 9.50759 17.5447 9.44053L17.5627 9.38121L26.2913 1.14956C25.8735 0.732599 25.0439 0.521973 23.8214 0.521973C20.4875 0.521973 15.441 2.13391 15.1582 2.22504C14.7782 2.39355 14.2271 2.47952 13.5204 2.47952C12.2575 2.47952 10.8872 2.21387 10.6679 2.17002C10.6654 2.17002 10.6636 2.17002 10.6611 2.17002C9.92086 2.17002 7.98137 1.00599 7.6693 0.815131C7.35207 0.70337 7.05117 0.645769 6.77693 0.645769C6.03071 0.645769 5.67909 1.06187 5.61375 1.14698L1.40637 10.7464C0.085866 13.231 -0.0104192 13.954 0.000756925 14.1388C2.31078 14.7002 5.37303 18.0178 6.13387 18.8749L10.5132 14.5962L10.5828 14.5816C10.9551 14.5033 11.3144 14.4629 11.6506 14.4629C14.3432 14.4629 15.0971 16.9483 15.2682 17.7384C15.4891 17.7169 15.7049 17.7057 15.9113 17.7057C19.0982 17.7057 19.7619 20.2573 19.8951 21.1282C20.3396 21.0388 20.7608 20.9941 21.1529 20.9941C24.075 20.9941 24.7481 23.4477 24.8917 24.2721C26.4289 24.04 27.6118 24.3701 28.4044 25.2427C29.6656 26.6277 29.4688 28.8715 29.4602 28.9661L29.4524 29.0529L25.1169 33.4572C25.7222 33.7796 26.2982 33.9421 26.8329 33.9421C28.9787 33.9421 29.9124 31.3011 29.9218 31.2735L29.9897 31.0767L30.1952 31.1136C30.5537 31.1773 30.895 31.2099 31.2105 31.2099C34.1077 31.2099 34.2564 28.4735 34.2616 28.3583L34.2745 28.0557L34.5676 28.1313C35.1497 28.2818 35.6939 28.3583 36.1839 28.3583C39.2023 28.3583 39.5041 25.5153 39.5152 25.3949L39.5402 25.1284L39.8032 25.1774C40.2511 25.2616 40.669 25.3029 41.0464 25.3029C42.0557 25.3029 42.813 25.0029 43.2962 24.4123C44.229 23.2731 43.8928 21.4042 43.8731 21.2967C43.0821 18.1493 33.0245 10.5341 31.6094 9.47492Z" fill="black"/>
<path d="M48.6065 1.91284L48.6005 1.88361C48.3537 0.685183 47.6221 0.506366 47.2086 0.506366C47.1656 0.506366 47.1295 0.508084 47.1029 0.510663C44.8866 2.23867 42.4674 2.4983 41.2174 2.4983C40.7394 2.4983 40.4393 2.46047 40.3929 2.45445C38.1775 2.23781 35.4384 1.29557 35.3232 1.25517L35.2957 1.24399C33.6064 0.418676 32.1604 0 30.9946 0C29.8246 0 29.3784 0.440168 29.3741 0.445326C24.3672 5.81331 19.7042 9.36303 19.1703 9.76365C18.3244 11.6369 20.5338 13.1792 20.8235 13.371C21.427 13.518 21.9927 13.5919 22.5059 13.5919C23.3553 13.5919 23.7688 13.3839 23.7731 13.3821L23.829 13.3529L23.9107 13.3546C25.2183 13.3546 29.9226 9.42579 31.6257 7.91185L31.7486 7.80267L31.8965 7.87488C37.5653 10.6569 44.7387 18.9951 45.1445 19.4714C45.5417 19.7723 45.9113 19.9236 46.2415 19.9236C46.6266 19.9236 46.8278 19.713 46.8355 19.7044L46.8596 19.6812L52.6548 14.8411L52.6952 14.8264C53.34 14.5892 53.7518 14.2599 53.9177 13.8498C54.1069 13.3839 53.9109 12.954 53.9083 12.9497L48.6065 1.91284Z" fill="black"/>
</svg>
