<svg width="79" height="80" viewBox="0 0 79 80" fill="none" xmlns="http://www.w3.org/2000/svg">
<path d="M4.37081 61.5286C4.37081 58.1335 7.11677 55.3714 10.4899 55.3714C13.8631 55.3714 16.6091 58.1333 16.6091 61.5286C16.6091 64.9238 13.8631 67.6857 10.4899 67.6857C7.11677 67.6857 4.37081 64.9238 4.37081 61.5286ZM10.4899 68.5653C4.70509 68.5653 0 73.2996 0 79.1204C0 79.6064 0.391177 80 0.874162 80H20.1057C20.5887 80 20.9799 79.6064 20.9799 79.1204C20.9799 73.2996 16.2748 68.5653 10.4899 68.5653Z" fill="black"/>
<path d="M61.8376 61.5286C61.8376 58.1335 64.5836 55.3714 67.9567 55.3714C71.3299 55.3714 74.0759 58.1333 74.0759 61.5286C74.0759 64.9238 71.3299 67.6857 67.9567 67.6857C64.5836 67.6857 61.8376 64.9238 61.8376 61.5286ZM67.9567 68.5653C62.1719 68.5653 57.4668 73.2996 57.4668 79.1204C57.4668 79.6064 57.858 80 58.341 80H77.5725C78.0555 80 78.4467 79.6064 78.4467 79.1204C78.4467 73.2996 73.7416 68.5653 67.9567 68.5653Z" fill="black"/>
<path d="M31.2416 56.0555C31.2416 51.6545 34.8233 48.0741 39.2231 48.0741C43.6229 48.0741 47.2046 51.6543 47.2046 56.0555C47.2046 60.4568 43.6229 64.037 39.2231 64.037C34.8233 64.037 31.2416 60.4568 31.2416 56.0555ZM39.2231 65.1772C31.6776 65.1772 25.5405 71.3143 25.5405 78.8598C25.5405 79.4898 26.0508 80 26.6807 80H51.7654C52.3954 80 52.9056 79.4898 52.9056 78.8598C52.9056 71.3143 46.7685 65.1772 39.2231 65.1772Z" fill="black"/>
<path d="M28.8901 32.7806H49.5562V43.4704H28.8901V32.7806Z" fill="black"/>
<path d="M26.7517 31.7116C26.7517 31.1272 27.2363 30.6426 27.8207 30.6426H50.6249C51.2093 30.6426 51.6939 31.1272 51.6939 31.7116V43.4703H59.5329V0H18.9131V43.4703H26.7521L26.7517 31.7116ZM47.4178 7.48253C47.4178 6.89817 47.9024 6.41355 48.4868 6.41355H51.3373C51.9217 6.41355 52.4063 6.89814 52.4063 7.48253C52.4063 8.06691 51.9217 8.5515 51.3373 8.5515H49.5558V10.3331C49.5558 10.9174 49.0712 11.402 48.4868 11.402C47.9024 11.402 47.4178 10.9174 47.4178 10.3331V7.48253ZM47.4178 18.8846C47.4178 18.3003 47.9024 17.8157 48.4868 17.8157H51.3373C51.9217 17.8157 52.4063 18.3003 52.4063 18.8846C52.4063 19.469 51.9217 19.9536 51.3373 19.9536H49.5558V21.7352C49.5558 22.3195 49.0712 22.8041 48.4868 22.8041C47.9024 22.8041 47.4178 22.3196 47.4178 21.7352V18.8846ZM36.7281 7.48253C36.7281 6.89817 37.2127 6.41355 37.7971 6.41355H40.6476C41.232 6.41355 41.7166 6.89814 41.7166 7.48253C41.7166 8.06691 41.232 8.5515 40.6476 8.5515H38.8661V10.3331C38.8661 10.9174 38.3815 11.402 37.7971 11.402C37.2127 11.402 36.7281 10.9174 36.7281 10.3331V7.48253ZM36.7281 18.8846C36.7281 18.3003 37.2127 17.8157 37.7971 17.8157H40.6476C41.232 17.8157 41.7166 18.3003 41.7166 18.8846C41.7166 19.469 41.232 19.9536 40.6476 19.9536H38.8661V21.7352C38.8661 22.3195 38.3815 22.8041 37.7971 22.8041C37.2127 22.8041 36.7281 22.3196 36.7281 21.7352V18.8846ZM26.0384 7.48253C26.0384 6.89817 26.523 6.41355 27.1074 6.41355H29.9579C30.5423 6.41355 31.0269 6.89814 31.0269 7.48253C31.0269 8.06691 30.5423 8.5515 29.9579 8.5515H28.1763V10.3331C28.1763 10.9174 27.6918 11.402 27.1074 11.402C26.523 11.402 26.0384 10.9174 26.0384 10.3331V7.48253ZM26.0384 21.7352V18.8846C26.0384 18.3003 26.523 17.8157 27.1074 17.8157H29.9579C30.5423 17.8157 31.0269 18.3003 31.0269 18.8846C31.0269 19.469 30.5423 19.9536 29.9579 19.9536H28.1763V21.7352C28.1763 22.3195 27.6918 22.8041 27.1074 22.8041C26.523 22.8041 26.0384 22.3196 26.0384 21.7352Z" fill="black"/>
<path d="M3.23535 5.70105H16.7756V9.26417H3.23535V5.70105Z" fill="black"/>
<path d="M0.384766 43.4704H16.7755V11.4021H0.384766V43.4704ZM7.1548 16.3899H10.0053C10.5968 16.3899 11.0743 16.8673 11.0743 17.4588V20.3094C11.0743 20.9009 10.5968 21.3783 10.0053 21.3783C9.41382 21.3783 8.93635 20.9009 8.93635 20.3094V18.5278H7.1548C6.56331 18.5278 6.08582 18.0503 6.08582 17.4588C6.08582 16.8673 6.56329 16.3899 7.1548 16.3899ZM7.1548 24.9415H10.0053C10.5968 24.9415 11.0743 25.4189 11.0743 26.0104V28.861C11.0743 29.4524 10.5968 29.9299 10.0053 29.9299C9.41382 29.9299 8.93635 29.4525 8.93635 28.861V27.0794H7.1548C6.56331 27.0794 6.08582 26.6019 6.08582 26.0104C6.08582 25.4189 6.56329 24.9415 7.1548 24.9415ZM7.1548 33.493H10.0053C10.5968 33.493 11.0743 33.9705 11.0743 34.562V37.4125C11.0743 38.004 10.5968 38.4815 10.0053 38.4815C9.41382 38.4815 8.93635 38.0041 8.93635 37.4125V35.631H7.1548C6.56331 35.631 6.08582 35.1535 6.08582 34.562C6.08582 33.9705 6.56329 33.493 7.1548 33.493Z" fill="black"/>
<path d="M61.6714 5.70105H75.2116V9.26417H61.6714V5.70105Z" fill="black"/>
<path d="M78.0622 11.4021H61.6714V43.4704H78.0622V11.4021ZM71.2921 35.6312H69.5106V37.4127C69.5106 38.0042 69.0331 38.4817 68.4416 38.4817C67.8501 38.4817 67.3726 38.0042 67.3726 37.4127V34.5622C67.3726 33.9707 67.8501 33.4932 68.4416 33.4932H71.2921C71.8836 33.4932 72.3611 33.9707 72.3611 34.5622C72.3611 35.1537 71.8836 35.6312 71.2921 35.6312ZM71.2921 27.0796H69.5106V28.8611C69.5106 29.4526 69.0331 29.9301 68.4416 29.9301C67.8501 29.9301 67.3726 29.4526 67.3726 28.8611V26.0106C67.3726 25.4191 67.8501 24.9416 68.4416 24.9416H71.2921C71.8836 24.9416 72.3611 25.4191 72.3611 26.0106C72.3611 26.6021 71.8836 27.0796 71.2921 27.0796ZM71.2921 18.528H69.5106V20.3096C69.5106 20.901 69.0331 21.3785 68.4416 21.3785C67.8501 21.3785 67.3726 20.9011 67.3726 20.3096V17.459C67.3726 16.8675 67.8501 16.3901 68.4416 16.3901H71.2921C71.8836 16.3901 72.3611 16.8675 72.3611 17.459C72.3611 18.0505 71.8836 18.528 71.2921 18.528Z" fill="black"/>
</svg>
