<svg width="50" height="50" viewBox="0 0 50 50" fill="none" xmlns="http://www.w3.org/2000/svg">
<path fill-rule="evenodd" clip-rule="evenodd" d="M37.8273 21.7769V33.7029C37.8273 34.799 37.3925 35.8515 36.6185 36.6257C35.8444 37.3999 34.7922 37.8349 33.6963 37.8349H16.3026C15.2067 37.8349 14.1544 37.3999 13.3804 36.6257C12.6064 35.8515 12.1715 34.799 12.1715 33.7029V21.7769L24.9995 14.2266L37.8273 21.7769ZM28.0779 29.3883C27.3561 29.3883 26.7734 29.9712 26.7734 30.6932C26.7734 31.4152 27.3561 31.998 28.0779 31.998C28.7998 31.998 29.3825 31.4152 29.3825 30.6932C29.3825 29.9712 28.7998 29.3883 28.0779 29.3883ZM21.9208 23.2299C21.199 23.2299 20.6163 23.8127 20.6163 24.5347C20.6163 25.2568 21.199 25.8396 21.9208 25.8396C22.6427 25.8396 23.2254 25.2568 23.2254 24.5347C23.2254 23.8127 22.6427 23.2299 21.9208 23.2299ZM28.8438 22.8472L20.2338 31.4591C19.9816 31.7113 19.9816 32.1289 20.2338 32.3811C20.486 32.6334 20.9034 32.6334 21.1556 32.3811L29.7657 23.7692C30.0179 23.5169 30.0179 23.0994 29.7657 22.8472C29.5135 22.5949 29.096 22.5949 28.8438 22.8472ZM9.88491 16.6102L23.7827 8.43311C24.5306 7.98947 25.4611 7.98947 26.2091 8.43311L40.1152 16.6102C40.3152 16.732 40.437 16.9408 40.437 17.1756V20.6551C40.437 20.89 40.3152 21.1075 40.1065 21.2205C39.9065 21.3336 39.6543 21.3336 39.4542 21.2205L24.9999 12.7133L10.5455 21.2205C10.3455 21.3423 10.0933 21.3423 9.89324 21.2205C9.69321 21.1075 9.56276 20.89 9.56276 20.6551V17.1756C9.56276 16.9408 9.68489 16.732 9.88491 16.6102ZM6.83229 42.1932C-2.43844 32.3983 -2.27313 16.9147 7.31932 7.31967C15.4507 -0.813465 27.8089 -2.17075 37.3585 3.25733C37.6716 3.43131 37.7759 3.83142 37.602 4.14463C37.428 4.45784 37.028 4.57087 36.7149 4.3882C27.6612 -0.752783 15.9554 0.534634 8.24144 8.24176C-0.837823 17.323 -1.00313 31.9631 7.74572 41.2536V39.1572C7.74572 38.8006 8.04141 38.5048 8.398 38.5048C8.75458 38.5048 9.05028 38.8006 9.05028 39.1572V42.8455C9.05028 43.2022 8.75458 43.4979 8.398 43.4979H4.71052C4.35395 43.4979 4.05824 43.2022 4.05824 42.8455C4.05824 42.4889 4.35394 42.1931 4.71052 42.1931H6.84124L6.83229 42.1932ZM43.1677 7.8157C52.4384 17.6106 52.2731 33.0858 42.6807 42.6803C34.5493 50.8135 22.1911 52.1708 12.6504 46.7427C12.3373 46.5687 12.2243 46.1686 12.4069 45.8554C12.5809 45.5422 12.9809 45.4291 13.294 45.6118C22.3388 50.7528 34.0535 49.4654 41.7591 41.7582C50.8384 32.677 51.0037 18.0369 42.2548 8.74637V10.8428C42.2548 11.1994 41.9591 11.4952 41.6026 11.4952C41.246 11.4952 40.9503 11.1994 40.9503 10.8428V7.15449C40.9503 6.79784 41.2373 6.50207 41.6026 6.50207H45.29C45.6466 6.50207 45.9423 6.79782 45.9423 7.15449C45.9423 7.51115 45.6466 7.80691 45.29 7.80691H43.1593L43.1677 7.8157Z" fill="black"/>
</svg>
