<svg width="49" height="40" viewBox="0 0 49 40" fill="none" xmlns="http://www.w3.org/2000/svg">
<path d="M7.23364 15.3965L9.02108 22.0735L3.1938 23.636C2.02228 23.9507 0.674174 22.7093 0.181033 20.8666C-0.312125 19.0217 0.237023 17.2739 1.40642 16.9593L7.23364 15.3965ZM36.6143 16.8879L33.7199 6.08388C33.6123 5.655 33.6596 5.22611 33.8427 4.84249C33.6898 4.84249 33.552 4.85757 33.4141 4.90283L10.3195 11.0949L13.8426 24.2586L19.6616 22.6961C19.3257 22.0065 19.1405 21.2241 19.1405 20.4117C19.1405 17.4547 21.5438 15.0473 24.5006 15.0473C27.3024 15.0473 29.6153 17.2241 29.8307 19.9677L36.9375 18.0668C37.0753 18.0215 37.2132 17.9741 37.3359 17.8836C37 17.6681 36.7394 17.3168 36.6166 16.8879L36.6143 16.8879ZM48.9387 15.2887L45.1915 1.2974C44.8965 0.191785 43.6905 -0.331918 42.7559 0.224116L37.6132 3.31254C37.3397 3.48711 37.1287 3.7134 37.0016 4.00005C36.8143 4.3729 36.7626 4.80822 36.8767 5.23499L39.7689 16.0368C39.883 16.4635 40.1458 16.8148 40.4947 17.0432C40.7466 17.2286 41.046 17.3363 41.3668 17.3342L47.3644 17.4355C48.4499 17.4484 49.2337 16.3924 48.9365 15.2868L48.9387 15.2887ZM24.5005 22.7112C25.6332 22.7112 26.5829 21.8685 26.7509 20.7952C26.781 20.6723 26.7961 20.5495 26.7961 20.4115C26.7961 19.14 25.771 18.1119 24.4983 18.1119C23.2277 18.1119 22.2005 19.1378 22.2005 20.4115C22.2005 20.9633 22.3986 21.4698 22.7518 21.8684C23.1502 22.3749 23.7769 22.7111 24.4983 22.7111L24.5005 22.7112ZM29.1715 23.0344C28.6353 24.015 27.7932 24.7974 26.7682 25.2715L28.9734 30.8038H20.0296L22.2348 25.2715C21.2097 24.7974 20.3655 24.0151 19.8314 23.0344L13.89 37.9008C13.5842 38.6832 13.9676 39.5711 14.7471 39.8922C14.9302 39.9698 15.1305 40 15.3135 40C15.9251 40 16.4936 39.6315 16.737 39.0345L18.8043 33.8706H30.1987L32.2661 39.0345C32.5116 39.6314 33.078 40 33.6896 40C33.8726 40 34.0729 39.9698 34.2559 39.8922C35.0377 39.5711 35.4188 38.681 35.113 37.9008L29.1715 23.0344Z" fill="black"/>
</svg>
