<svg width="16" height="16" viewBox="0 0 16 16" fill="none" xmlns="http://www.w3.org/2000/svg">
<path d="M13.8164 0H1.3741C0.615214 0 0 0.615214 0 1.3741V13.8163C0 14.5753 0.615214 15.1905 1.3741 15.1905H13.8163C14.5753 15.1905 15.1905 14.5753 15.1905 13.8163V1.3741C15.1905 0.615214 14.5753 0 13.8164 0ZM4.70058 13.1165C4.70058 13.3373 4.52155 13.5163 4.30069 13.5163H2.59849C2.37763 13.5163 2.1986 13.3373 2.1986 13.1165V5.98087C2.1986 5.76001 2.37763 5.58099 2.59849 5.58099H4.30069C4.52155 5.58099 4.70058 5.76001 4.70058 5.98087V13.1165ZM3.44959 4.90835C2.55649 4.90835 1.83248 4.18434 1.83248 3.29124C1.83248 2.39815 2.55649 1.67413 3.44959 1.67413C4.34269 1.67413 5.0667 2.39815 5.0667 3.29124C5.0667 4.18434 4.34273 4.90835 3.44959 4.90835ZM13.5963 13.1487C13.5963 13.3517 13.4316 13.5163 13.2286 13.5163H11.402C11.199 13.5163 11.0343 13.3517 11.0343 13.1487V9.80167C11.0343 9.30238 11.1808 7.61373 9.7295 7.61373C8.60378 7.61373 8.37544 8.76956 8.32959 9.28826V13.1487C8.32959 13.3517 8.165 13.5163 7.96192 13.5163H6.19529C5.99225 13.5163 5.82762 13.3517 5.82762 13.1487V5.94866C5.82762 5.74562 5.99225 5.58099 6.19529 5.58099H7.96192C8.16496 5.58099 8.32959 5.74562 8.32959 5.94866V6.57119C8.74701 5.94477 9.36735 5.46125 10.6882 5.46125C13.613 5.46125 13.5963 8.19379 13.5963 9.69518V13.1487Z" fill="#132219"/>
</svg>
