<?xml version="1.0" encoding="UTF-8"?>
<svg id="Layer_1" data-name="Layer 1" xmlns="http://www.w3.org/2000/svg" viewBox="0 0 87.53 86.95">
  <path d="m64.36,10.67c-5.5-5.5-12.81-8.53-20.59-8.53-16.06,0-29.12,13.06-29.12,29.12,0,.35.01.71.02,1.05.11,2.97.66,5.89,1.64,8.67,5.64,18.4,23.98,41.56,24.76,42.54.65.82,1.65,1.3,2.7,1.3s2.05-.48,2.7-1.3c.78-.98,19.12-24.14,24.75-42.54.98-2.78,1.54-5.69,1.64-8.63.02-.37.03-.73.03-1.09,0-7.78-3.03-15.09-8.53-20.59Zm1.6,21.39c-.08,2.3-.51,4.54-1.27,6.67-.02.05-.04.1-.05.16-3.99,13.12-15.57,29.64-20.87,36.78-5.3-7.13-16.87-23.65-20.87-36.78-.02-.05-.03-.1-.05-.16-.76-2.13-1.19-4.38-1.27-6.7-.01-.26-.02-.52-.02-.77,0-12.25,9.96-22.21,22.21-22.21,5.93,0,11.51,2.31,15.71,6.51s6.51,9.77,6.51,15.71c-.01.24-.01.49-.03.79Z"/>
  <path d="m43.73,14.86c-8.9,0-16.14,7.24-16.14,16.14,0,3.4,1.06,6.56,2.87,9.17,2.88,4.29,7.77,7.11,13.31,7.11,7.19,0,13.28-4.75,15.31-11.28.51-1.57.8-3.25.8-5-.01-8.9-7.25-16.14-16.15-16.14Zm0,25.24c-4.69,0-8.56-3.57-9.04-8.13-.02-.24-.04-.47-.04-.71,0-5.03,4.09-9.12,9.12-9.12,4.34,0,7.97,3.05,8.89,7.11.11.57.17,1.15.17,1.75,0,5.02-4.08,9.1-9.1,9.1Z"/>
</svg>