<svg width="34" height="52" viewBox="0 0 34 52" fill="none" xmlns="http://www.w3.org/2000/svg">
<path d="M16.5429 1.44624e-06C17.2896 1.38096e-06 17.9502 0.258487 18.5246 0.775457L32.3105 14.5613C32.8275 15.1358 33.0859 15.7963 33.0859 16.5431C33.0859 17.2898 32.8275 17.9504 32.3105 18.5248C31.7361 19.0418 31.0755 19.3002 30.3288 19.3002C29.582 19.3002 28.9215 19.0418 28.347 18.5248L16.5429 6.63446L4.73872 18.5248C4.16431 19.0418 3.50374 19.3002 2.757 19.3002C2.01027 19.3002 1.34969 19.0418 0.775282 18.5248C0.25831 17.9504 -0.000173965 17.2898 -0.00017403 16.5431C-0.000174095 15.7963 0.25831 15.1358 0.775281 14.5613L14.5612 0.775458C15.1356 0.258487 15.7961 1.51152e-06 16.5429 1.44624e-06Z" fill="#132219"/>
<path d="M16.543 23.3003C17.1072 23.3003 17.6063 23.5012 18.0404 23.903L28.457 34.6173C28.8477 35.0637 29.043 35.5771 29.043 36.1574C29.043 36.7378 28.8477 37.2512 28.457 37.6976C28.023 38.0994 27.5239 38.3003 26.9596 38.3003C26.3954 38.3003 25.8963 38.0994 25.4622 37.6976L16.543 28.4565L7.6237 37.6976C7.18967 38.0994 6.69054 38.3003 6.1263 38.3003C5.56206 38.3003 5.06293 38.0994 4.62891 37.6976C4.23828 37.2512 4.04297 36.7378 4.04297 36.1574C4.04297 35.5771 4.23828 35.0637 4.62891 34.6173L15.0456 23.903C15.4796 23.5012 15.9787 23.3003 16.543 23.3003Z" fill="#132219"/>
<path d="M16.543 42.3003C16.8815 42.3003 17.181 42.4208 17.4414 42.6619L23.6914 49.0905C23.9258 49.3583 24.043 49.6664 24.043 50.0146C24.043 50.3628 23.9258 50.6708 23.6914 50.9387C23.431 51.1798 23.1315 51.3003 22.793 51.3003C22.4544 51.3003 22.1549 51.1798 21.8945 50.9387L16.543 45.394L11.1914 50.9387C10.931 51.1798 10.6315 51.3003 10.293 51.3003C9.95443 51.3003 9.65495 51.1798 9.39453 50.9387C9.16016 50.6708 9.04297 50.3628 9.04297 50.0146C9.04297 49.6664 9.16016 49.3583 9.39453 49.0905L15.6445 42.6619C15.9049 42.4208 16.2044 42.3003 16.543 42.3003Z" fill="#132219"/>
</svg>
