<svg width="74" height="66" viewBox="0 0 74 66" fill="none" xmlns="http://www.w3.org/2000/svg">
<path d="M65.7369 22.3521C65.5779 22.4114 65.4083 22.4366 65.2389 22.4259C65.0696 22.4153 64.9044 22.3691 64.7541 22.2903C64.6038 22.2115 64.4717 22.102 64.3663 21.9687C64.261 21.8355 64.1849 21.6816 64.1428 21.5169C64.1007 21.3523 64.0936 21.1806 64.1221 21.0131C64.1505 20.8455 64.2138 20.6858 64.3079 20.5444C64.4019 20.4029 64.5246 20.2829 64.668 20.192C64.8114 20.1012 64.9722 20.0415 65.1401 20.017L71.4633 18.3202C71.7734 18.2385 72.1031 18.2826 72.381 18.4429C72.6588 18.6033 72.8623 18.8669 72.9473 19.1767C72.9887 19.33 72.9994 19.49 72.9788 19.6475C72.9581 19.805 72.9066 19.9568 72.8271 20.0943C72.7477 20.2317 72.6418 20.3521 72.5157 20.4483C72.3896 20.5446 72.2458 20.615 72.0924 20.6553L65.7369 22.3521ZM49.461 2.09542C49.4145 1.75461 49.2961 1.42763 49.1136 1.1362C48.9312 0.844777 48.689 0.595584 48.403 0.405186C48.1171 0.214788 47.7939 0.0875437 47.4551 0.0319114C47.1162 -0.0237208 46.7695 -0.00646774 46.4378 0.0825243C46.1061 0.171516 45.7971 0.330209 45.5314 0.548056C45.2657 0.765903 45.0493 1.03791 44.8966 1.34601C44.7439 1.65411 44.6584 1.99124 44.6458 2.33499C44.6332 2.67875 44.6937 3.02126 44.8235 3.33975L56.494 46.972C57.3005 50.0344 61.9543 48.7901 61.1397 45.7277L49.461 2.09542ZM64.7852 3.60639C64.5114 3.45599 64.1899 3.41827 63.8888 3.50122C63.5877 3.58417 63.3307 3.78128 63.1721 4.0508L59.8976 9.70683C59.8192 9.84424 59.7686 9.99578 59.7487 10.1528C59.7288 10.3098 59.7399 10.4692 59.7815 10.6219C59.823 10.7745 59.8942 10.9175 59.9909 11.0427C60.0877 11.1678 60.2081 11.2726 60.3452 11.3511C60.4824 11.4296 60.6336 11.4803 60.7903 11.5003C60.9471 11.5203 61.1062 11.5091 61.2586 11.4674C61.411 11.4258 61.5537 11.3545 61.6786 11.2576C61.8035 11.1607 61.9081 11.0401 61.9865 10.9027L65.261 5.24664C65.4139 4.96568 65.4497 4.63555 65.3606 4.32827C65.2714 4.02098 65.0646 3.76149 64.7852 3.60639ZM60.8896 20.526C60.7579 20.0328 60.4742 19.5939 60.0788 19.2718C59.6834 18.9497 59.1966 18.7609 58.6878 18.7323L56.3811 18.6111L58.8975 28.0082L60.8332 26.6911C61.2563 26.4103 61.5805 26.0032 61.76 25.5276C61.9394 25.052 61.9651 24.5319 61.8333 24.0409L60.8896 20.526ZM73.2054 35.0782L67.5597 31.8058C67.2845 31.6704 66.9683 31.6446 66.6749 31.7338C66.3816 31.823 66.1329 32.0204 65.9793 32.2862C65.8257 32.552 65.7785 32.8662 65.8473 33.1655C65.916 33.4648 66.0957 33.7268 66.3499 33.8985L71.9956 37.1305C72.1295 37.2474 72.2874 37.3332 72.4581 37.382C72.6288 37.4309 72.8082 37.4414 72.9834 37.413C73.1587 37.3846 73.3255 37.3179 73.4722 37.2177C73.6188 37.1174 73.7416 36.986 73.8319 36.8329C73.9222 36.6798 73.9777 36.5086 73.9945 36.3315C74.0114 36.1545 73.9891 35.9759 73.9293 35.8084C73.8695 35.6409 73.7737 35.4887 73.6486 35.3625C73.5235 35.2363 73.3722 35.1393 73.2054 35.0782ZM24.0068 21.0755L29.6525 42.0432C37.8792 41.5342 46.7995 42.4149 53.4453 44.7904L43.2749 6.81417C38.6696 12.147 31.3866 17.391 24.0068 21.0755ZM20.821 45.6712C20.0951 45.8328 19.3934 45.9944 18.7159 46.1802L13.3283 47.6265L22.8292 64.1179C25.2892 68.3842 31.7576 64.6431 29.2815 60.3769L20.821 45.6712ZM27.1603 42.2291L21.7807 22.134C18.9904 23.4259 16.0952 24.4774 13.1266 25.2771L7.11794 26.8931C4.65802 27.5531 2.56057 29.1651 1.28701 31.3744C0.0134422 33.5838 -0.331911 36.2094 0.326921 38.6738C0.985752 41.1382 2.5948 43.2395 4.80009 44.5154C7.00539 45.7913 9.62628 46.1373 12.0862 45.4772L18.0868 43.8612C21.0591 43.0579 24.0948 42.5119 27.1603 42.2291Z" fill="#CAF476"/>
</svg>
