<svg width="74" height="46" viewBox="0 0 74 46" fill="none" xmlns="http://www.w3.org/2000/svg">
<path d="M18.2092 22.2203L18.1614 22.1725C17.5847 21.6086 16.8204 21.2987 16.0083 21.2987C15.1694 21.2987 14.3865 21.6261 13.8051 22.2215L8.71588 27.3864C7.5298 28.6005 7.55194 30.5544 8.76715 31.7404L8.81608 31.7882C9.39281 32.3521 10.156 32.662 10.9692 32.662C11.8081 32.662 12.5899 32.3346 13.1713 31.7393L18.2605 26.5732C19.4454 25.3615 19.4244 23.4076 18.2092 22.2203Z" fill="#CAF476"/>
<path d="M24.463 26.8281L24.4141 26.7803C23.8374 26.2176 23.0742 25.9065 22.2622 25.9065C21.4221 25.9065 20.6403 26.2339 20.0578 26.8293L14.9709 31.9965C13.7848 33.2094 13.807 35.1633 15.021 36.3506L15.0699 36.3972C15.6467 36.9611 16.411 37.2722 17.2231 37.2722C18.0619 37.2722 18.8449 36.9448 19.4263 36.3494L24.5143 31.1821C25.7004 29.9692 25.6771 28.0153 24.463 26.8281Z" fill="#CAF476"/>
<path d="M31.1186 30.8879L31.0685 30.839C30.4929 30.2762 29.7286 29.9663 28.9153 29.9663C28.0765 29.9663 27.2947 30.2937 26.7133 30.8891L21.6241 36.0552C20.438 37.2692 20.4601 39.2231 21.6753 40.4092L21.7243 40.457C22.2998 41.0197 23.0642 41.3308 23.8774 41.3308C24.7163 41.3308 25.4981 41.0034 26.0806 40.408L31.1687 35.2408C32.3547 34.0279 32.3314 32.074 31.1186 30.8879Z" fill="#CAF476"/>
<path d="M37.3709 35.3117L37.3208 35.2616C36.7452 34.7001 35.9821 34.3901 35.1688 34.3901C34.33 34.3901 33.5482 34.7175 32.9656 35.3129L27.8776 40.479C26.6904 41.6919 26.7137 43.6458 27.9277 44.833L27.9778 44.8808C28.5534 45.4436 29.3177 45.7546 30.1298 45.7546C30.9686 45.7546 31.7516 45.4272 32.333 44.8319L37.421 39.6646C38.6082 38.4517 38.5849 36.4978 37.3709 35.3117Z" fill="#CAF476"/>
<path d="M42.8386 12.8409C37.4488 17.9406 33.2765 19.8467 33.0994 19.9271L33.0645 19.9399C32.2617 20.1951 31.304 20.3291 30.2962 20.3291C29.0169 20.3291 27.9601 20.1182 27.4428 19.9376C26.3989 19.5729 24.6186 17.8544 23.8496 16.4702C23.0574 15.0441 23.7459 12.8851 23.7774 12.7943L23.8019 12.7139L35.6312 1.55793C35.065 0.992849 33.9406 0.707397 32.2839 0.707397C27.7656 0.707397 20.9264 2.89198 20.5431 3.01548C20.0281 3.24385 19.2812 3.36036 18.3235 3.36036C16.612 3.36036 14.7548 3.00034 14.4577 2.94092C14.4542 2.94092 14.4519 2.94092 14.4484 2.94092C13.4452 2.94092 10.8167 1.36336 10.3938 1.1047C9.96387 0.953236 9.55608 0.875173 9.18441 0.875173C8.1731 0.875173 7.69657 1.43909 7.60802 1.55443L1.90598 14.5641C0.11637 17.9312 -0.0141206 18.9111 0.00102582 19.1616C3.13167 19.9224 7.28179 24.4186 8.31291 25.5802L14.248 19.7814L14.3423 19.7616C14.8468 19.6556 15.3339 19.6009 15.7894 19.6009C19.4385 19.6009 20.4603 22.9692 20.6922 24.0399C20.9916 24.0108 21.2841 23.9957 21.5637 23.9957C25.8827 23.9957 26.7822 27.4537 26.9628 28.634C27.5652 28.5128 28.1361 28.4522 28.6674 28.4522C32.6276 28.4522 33.5398 31.7774 33.7344 32.8948C35.8176 32.5802 37.4208 33.0276 38.495 34.2102C40.2043 36.0872 39.9375 39.1281 39.9258 39.2563L39.9153 39.374L34.0397 45.3428C34.8599 45.7798 35.6405 46 36.3652 46C39.2733 46 40.5387 42.4207 40.5515 42.3835L40.6435 42.1166L40.922 42.1667C41.4078 42.253 41.8704 42.2972 42.298 42.2972C46.2244 42.2972 46.4259 38.5887 46.4329 38.4326L46.4504 38.0224L46.8477 38.125C47.6365 38.3289 48.374 38.4326 49.0381 38.4326C53.1288 38.4326 53.5378 34.5795 53.5529 34.4164L53.5867 34.0552L53.9432 34.1217C54.5503 34.2358 55.1165 34.2918 55.628 34.2918C56.9958 34.2918 58.0223 33.8851 58.6771 33.0847C59.9412 31.5409 59.4856 29.008 59.4588 28.8623C58.3869 24.5969 44.7563 14.2763 42.8386 12.8409Z" fill="#CAF476"/>
<path d="M65.8739 2.59238L65.8658 2.55276C65.5314 0.928594 64.5399 0.686252 63.9795 0.686252C63.9212 0.686252 63.8723 0.688581 63.8362 0.692076C60.8325 3.03395 57.5539 3.38582 55.8598 3.38582C55.212 3.38582 54.8054 3.33455 54.7425 3.3264C51.74 3.03279 48.028 1.75583 47.8718 1.70106L47.8346 1.68592C45.5451 0.56741 43.5854 0 42.0055 0C40.4198 0 39.8151 0.596537 39.8093 0.603528C33.0237 7.87849 26.7042 12.6892 25.9806 13.2322C24.8342 15.771 27.8285 17.8612 28.2211 18.121C29.039 18.3202 29.8057 18.4204 30.5012 18.4204C31.6524 18.4204 32.2128 18.1385 32.2186 18.1361L32.2943 18.0965L32.405 18.0989C34.1772 18.0989 40.5526 12.7743 42.8607 10.7225L43.0273 10.5746L43.2277 10.6724C50.9104 14.4427 60.6321 25.7432 61.182 26.3886C61.7203 26.7964 62.2213 27.0015 62.6687 27.0015C63.1907 27.0015 63.4633 26.716 63.4738 26.7044L63.5064 26.6729L71.3604 20.1133L71.4152 20.0935C72.289 19.772 72.8471 19.3257 73.072 18.77C73.3283 18.1385 73.0627 17.5559 73.0592 17.5501L65.8739 2.59238Z" fill="#CAF476"/>
</svg>
