<svg width="76" height="66" viewBox="0 0 76 66" fill="none" xmlns="http://www.w3.org/2000/svg">
<path d="M75.4286 63.0989H0V66H75.4286V63.0989Z" fill="#CAF476"/>
<path d="M9.97243 30.0989C12.7715 30.0989 15.0494 27.8211 15.0494 25.022C15.0494 24.0288 14.7517 23.1081 14.2566 22.3246L26.1579 9.57218C26.8539 9.93154 27.6313 10.1538 28.4669 10.1538C29.3024 10.1538 30.0798 9.93154 30.7757 9.57235L42.6774 22.3242C42.1822 23.1078 41.8845 24.0286 41.8845 25.022C41.8845 27.8211 44.1623 30.0989 46.9614 30.0989C49.7605 30.0989 52.0384 27.8211 52.0384 25.022C52.0384 24.0288 51.7407 23.1081 51.2456 22.3246L63.1469 9.57218C63.8429 9.93154 64.6203 10.1538 65.4559 10.1538C68.2551 10.1538 70.5329 7.87603 70.5329 5.07692C70.5329 2.27782 68.2551 0 65.4559 0C62.6568 0 60.379 2.27782 60.379 5.07692C60.379 5.98299 60.6372 6.82229 61.055 7.55952L49.0601 20.4123C48.4185 20.1188 47.7118 19.9451 46.9614 19.9451C46.2113 19.9451 45.5046 20.1188 44.8632 20.4122L32.8676 7.55987C33.2855 6.82256 33.5439 5.98316 33.5439 5.07692C33.5439 2.27782 31.266 0 28.4669 0C25.6678 0 23.39 2.27782 23.39 5.07692C23.39 5.98299 23.6482 6.82229 24.066 7.55952L12.0711 20.4123C11.4295 20.1188 10.7228 19.9451 9.97243 19.9451C7.17332 19.9451 4.89551 22.2229 4.89551 25.022C4.89551 27.8211 7.17332 30.0989 9.97243 30.0989ZM65.4559 2.9011C66.6558 2.9011 67.6318 3.8771 67.6318 5.07692C67.6318 6.27674 66.6558 7.25275 65.4559 7.25275C64.2561 7.25275 63.2801 6.27674 63.2801 5.07692C63.2801 3.8771 64.2561 2.9011 65.4559 2.9011ZM49.1373 25.022C49.1373 26.2218 48.1613 27.1978 46.9614 27.1978C45.7616 27.1978 44.7856 26.2218 44.7856 25.022C44.7856 23.8222 45.7616 22.8462 46.9614 22.8462C48.1613 22.8462 49.1373 23.8222 49.1373 25.022ZM28.4669 2.9011C29.6668 2.9011 30.6428 3.8771 30.6428 5.07692C30.6428 6.27674 29.6668 7.25275 28.4669 7.25275C27.2671 7.25275 26.2911 6.27674 26.2911 5.07692C26.2911 3.8771 27.2671 2.9011 28.4669 2.9011ZM9.97243 22.8462C11.1723 22.8462 12.1483 23.8222 12.1483 25.022C12.1483 26.2218 11.1723 27.1978 9.97243 27.1978C8.77261 27.1978 7.79661 26.2218 7.79661 25.022C7.79661 23.8222 8.77261 22.8462 9.97243 22.8462Z" fill="#CAF476"/>
<path d="M15.0494 44.6044H4.89551V60.9231H15.0494V44.6044Z" fill="#CAF476"/>
<path d="M33.5435 24.6593H23.3896V60.923H33.5435V24.6593Z" fill="#CAF476"/>
<path d="M52.0386 44.6044H41.8848V60.9231H52.0386V44.6044Z" fill="#CAF476"/>
<path d="M70.5328 24.6593H60.3789V60.923H70.5328V24.6593Z" fill="#CAF476"/>
</svg>
