<svg width="69" height="67" viewBox="0 0 69 67" fill="none" xmlns="http://www.w3.org/2000/svg">
<path d="M16.0568 43.1815C16.0001 43.1702 15.9434 43.1702 15.8866 43.1702H3.4042C1.53191 43.1702 0 44.7021 0 46.5744V63.5957C0 65.468 1.53191 66.9999 3.4042 66.9999H15.8866C17.7589 66.9999 19.2908 65.468 19.2908 63.5957V46.5744C19.288 44.8155 17.8724 43.2553 16.0568 43.1815Z" fill="#CAF476"/>
<path d="M48.0903 49.5585L45.6052 47.0848C44.7882 47.5047 43.9599 47.8792 43.1201 48.1968V63.595C43.1201 65.4673 44.652 66.9992 46.5243 66.9992H59.0067C60.879 66.9992 62.4109 65.4673 62.4109 63.595V60.7128C60.3344 60.6788 58.394 59.8617 56.9075 58.3866L48.0903 49.5585Z" fill="#CAF476"/>
<path d="M37.4462 26.1493H24.9638C23.0915 26.1493 21.5596 27.6812 21.5596 29.5535V32.345C25.6474 38.4725 34.5155 40.4613 40.8497 36.759V29.5535C40.8497 27.6812 39.3185 26.1493 37.4462 26.1493Z" fill="#CAF476"/>
<path d="M21.5605 47.0399V63.5958C21.5605 65.468 23.0925 67 24.9647 67H37.4472C39.3195 67 40.8514 65.468 40.8514 63.5958V48.9688C34.4799 50.8553 27.3624 50.1263 21.5613 47.0398L21.5605 47.0399Z" fill="#CAF476"/>
<path d="M57.7122 39.9303L55.2356 37.4537C54.5377 36.7558 54.3873 35.6665 54.8611 34.7417C67.0313 9.61054 34.9268 -12.3186 15.9004 7.97362C-1.1464 27.9282 20.7542 56.7616 44.4986 45.1049C45.4233 44.6312 46.5155 44.7787 47.2134 45.4766L58.515 56.7781C64.0099 61.8958 71.6663 54.2704 66.5376 48.7555L57.7122 39.9303ZM45.6785 35.919C29.0515 51.2235 6.30313 28.4694 21.6077 11.846C24.8247 8.62904 29.0995 6.85886 33.6442 6.85886C48.6851 6.79929 56.3476 25.2985 45.6807 35.9196L45.6785 35.919ZM64.9352 55.1757C63.6502 56.4607 61.409 56.4636 60.1211 55.1757L52.0956 47.153C53.2955 45.9531 55.7097 43.5389 56.9097 42.3389L64.9352 50.3645C66.2544 51.6297 66.2544 53.9133 64.9352 55.1786V55.1757Z" fill="#CAF476"/>
</svg>
