<?xml version="1.0" encoding="UTF-8"?>
<svg id="Layer_1" data-name="Layer 1" xmlns="http://www.w3.org/2000/svg" viewBox="0 0 87.53 86.95">
  <defs>
    <style>
      .cls-1 {
        fill-rule: evenodd;
      }
    </style>
  </defs>
  <path class="cls-1" d="m23.1,82.03v-26.29c0-.79.64-1.43,1.43-1.43h15.68c.79,0,1.43.64,1.43,1.43v26.29h28.51c.79,0,1.43-.64,1.43-1.43v-36.66l-27.8-23.27-27.8,23.27v36.66c0,.79.64,1.43,1.43,1.43h5.7Zm2.85,0v-24.86h12.83v24.86h-12.83Zm38.49-38.49c0-.79-.64-1.43-1.43-1.43h-15.68c-.79,0-1.43.64-1.43,1.43v23.6c0,.79.64,1.43,1.43,1.43h15.68c.79,0,1.43-.64,1.43-1.43v-23.6Zm-2.85,1.43v20.75h-12.83v-20.75h12.83Zm17.82-9.98c0-.42-.19-.82-.51-1.09L44.68,5.25c-.53-.44-1.3-.44-1.83,0L8.64,33.9c-.32.27-.51.67-.51,1.09v10.61c0,.55.32,1.06.82,1.29.5.23,1.09.16,1.52-.2l33.3-27.87,33.3,27.87c.42.36,1.02.43,1.52.2.5-.23.82-.74.82-1.29,0,0,0-10.61,0-10.61Zm-22.1-21.02l14.26,11.93V9.33c0-.79-.64-1.43-1.43-1.43h-11.4c-.79,0-1.43.64-1.43,1.43,0,0,0,4.64,0,4.64Z"/>
</svg>