<svg width="40" height="40" viewBox="0 0 40 40" fill="none" xmlns="http://www.w3.org/2000/svg">
<path fill-rule="evenodd" clip-rule="evenodd" d="M18.2497 3.51816C21.8736 3.51816 25.4143 4.59999 28.419 6.62496L28.5473 8.95506L24.9564 12.5403C21.8301 10.2692 17.7677 9.73522 14.1594 11.1204C10.5512 12.504 7.88962 15.6213 7.08664 19.4005C6.28384 23.18 7.44729 27.1085 10.18 29.8407C12.9126 32.5729 16.8417 33.7363 20.6213 32.9336C24.4013 32.1309 27.5188 29.4697 28.9024 25.8617C30.2878 22.2538 29.7537 18.1919 27.4823 15.066L31.068 11.4755L33.3984 11.6038C36.4414 16.1428 37.2875 21.8048 35.708 27.0357C34.1266 32.2645 30.2842 36.5123 25.2386 38.6063C20.193 40.7007 14.4727 40.4233 9.65262 37.8504C4.83252 35.2776 1.4182 30.6799 0.351997 25.3225C-0.716068 19.9637 0.674502 14.4088 4.14234 10.1857C7.60842 5.96244 12.7864 3.51638 18.2497 3.51816ZM19.5813 21.7604L35.7967 5.56776C36.0134 5.40132 36.1487 5.14993 36.166 4.87774C36.1851 4.60381 36.0845 4.3368 35.8903 4.14267C35.6961 3.94854 35.4291 3.84794 35.1569 3.86701C34.883 3.88435 34.6315 4.01958 34.4651 4.23629L18.2497 20.4152C18.0329 20.5816 17.8977 20.833 17.8786 21.1069C17.8613 21.3791 17.9619 21.6461 18.1561 21.8403C18.3485 22.0344 18.6173 22.135 18.8895 22.1159C19.1634 22.0986 19.4149 21.9633 19.5813 21.7466V21.7604ZM31.8728 10.6767L35.1169 10.8535C35.3337 10.8656 35.5452 10.7859 35.6978 10.6316L39.8973 6.43257V6.43431C39.9961 6.32855 40.0256 6.17772 39.9771 6.04422C39.9285 5.90899 39.8089 5.81191 39.6667 5.79457L36.7555 5.62987C36.667 5.83098 36.5422 6.01302 36.3862 6.1673L31.8728 10.6767ZM34.4026 3.27361L34.2292 0.357523C34.2205 0.208423 34.1251 0.078395 33.9847 0.0246519C33.846 -0.0273604 33.6882 0.00384744 33.5807 0.109605L29.3916 4.30689C29.2321 4.46466 29.1523 4.68484 29.1696 4.90677L29.3465 8.15053L33.8652 3.63769C34.0195 3.48165 34.2016 3.35683 34.4027 3.26841L34.4026 3.27361ZM18.2493 17.1832C16.2397 17.1849 14.4659 18.4991 13.8816 20.4218C13.2956 22.3444 14.0325 24.4231 15.7005 25.5466C17.3668 26.6683 19.5706 26.5713 21.1327 25.3057C22.6932 24.0418 23.2463 21.9041 22.4921 20.0423L20.1843 22.3464V22.3447C19.489 23.0416 18.3602 23.0416 17.6632 22.3447C16.9679 21.6494 16.9679 20.5208 17.6632 19.8238L19.9675 17.5163C19.4213 17.2961 18.8371 17.1832 18.2493 17.1832Z" fill="black"/>
</svg>
